<svg xmlns="http://www.w3.org/2000/svg" width="49" height="64" preserveAspectRatio="xMidYMid"><g fill-rule="evenodd"><path d="M49 16.842v42.105C49 61.738 46.73 64 43.931 64H5.069C2.269 64 0 61.738 0 58.947V5.053C0 2.262 2.269 0 5.069 0h27.034L49 16.842z" fill="#d15ae3"/><path d="M37.917 48.182c-.78.618-2.033.927-3.757.927-1.422 0-2.665-.271-3.73-.814l.69-1.909a7.143 7.143 0 0 0 3.04.688c.968 0 1.641-.139 2.019-.416.378-.278.567-.745.567-1.403v-.778c-.774.706-1.709 1.059-2.804 1.059-1.162 0-2.075-.416-2.741-1.248-.665-.833-.998-2.03-.998-3.592 0-.977.156-1.838.467-2.582.312-.745.769-1.321 1.371-1.728.602-.407 1.329-.611 2.182-.611.503 0 1.005.11 1.507.33.502.221.923.499 1.261.837l.309-.895h1.788v9.308c0 1.266-.39 2.209-1.171 2.827zm-1.171-9.503c-.641-.567-1.34-.85-2.096-.85-.569 0-1.05.259-1.443.778-.393.518-.59 1.203-.59 2.053 0 .965.174 1.677.522 2.135.348.458.8.687 1.357.687.774 0 1.524-.31 2.25-.931v-3.872zm-10.6 1.628c0-.989-.089-1.649-.268-1.981-.178-.331-.516-.497-1.012-.497-.695 0-1.533.458-2.513 1.375v6.332h-2.342v-9.489h2.342v1.23a5.372 5.372 0 0 1 1.588-1.122c.562-.253 1.113-.38 1.651-.38.975 0 1.701.266 2.179.796.477.531.716 1.408.716 2.633v6.332h-2.341v-5.229zm-9.711 4.894c-.575.41-1.261.615-2.06.615-1.053 0-1.951-.328-2.695-.986v4.279H9.338V36.047h2.16v.931a5.623 5.623 0 0 1 1.375-.882c.481-.214 1.033-.321 1.656-.321 1.204 0 2.121.422 2.75 1.267.629.844.944 2.071.944 3.681 0 1.02-.154 1.918-.463 2.696-.308.778-.75 1.372-1.325 1.782zm-1.107-6.599c-.321-.516-.799-.773-1.434-.773-.381 0-.773.089-1.175.266a3.927 3.927 0 0 0-1.039.656v4.152c.248.224.555.421.921.593s.742.258 1.13.258c.641 0 1.148-.273 1.52-.819.372-.546.558-1.271.558-2.175 0-.923-.16-1.642-.481-2.158z" fill="#fff"/><path d="M49 15.899v2.096H35.187c-2.86 0-4.179-2.32-4.179-5.181V0H33.1L49 15.899z" fill="#ed91fa"/></g></svg>